<svg width="201" height="33" viewBox="0 0 201 33" fill="none" xmlns="http://www.w3.org/2000/svg">
<path d="M3.97689 27.0598C9.72821 31.1098 17.5613 29.428 21.2492 23.5668C22.2333 22.1186 22.8406 20.4116 23.1663 18.7047C23.2138 18.313 23.2687 17.871 23.3272 17.4757C23.3382 17.3643 23.5285 17.3643 23.5321 17.4829C23.9382 22.8086 20.3674 27.5341 15.2344 29.1261C11.4258 30.3587 7.02816 29.6436 3.85615 27.2215C3.76469 27.1424 3.85615 26.9879 3.97689 27.0598Z" fill="#878277"/>
<path d="M6.62204 23.5488C10.2258 26.0895 15.2015 24.9539 17.4771 21.2813C18.2418 20.1709 18.6771 18.8664 18.8893 17.4829C18.8967 17.4254 18.9479 17.3858 19.0064 17.3966C19.054 17.4038 19.0869 17.4397 19.0942 17.4829C19.2698 18.9095 18.9479 20.4296 18.1722 21.7053C16.6539 24.2568 13.4673 25.6439 10.5148 25.3169C9.04769 25.1624 7.64645 24.591 6.50131 23.7141C6.40252 23.6387 6.51594 23.477 6.62204 23.5524V23.5488Z" fill="#878277"/>
<path d="M9.25623 20.0487C11.5794 21.4861 13.7636 19.772 14.4478 17.4793C14.4734 17.3822 14.6271 17.3822 14.6527 17.4793C15.4063 20.4727 11.2209 22.0431 9.13549 20.2104C9.03671 20.1313 9.15378 19.9804 9.25623 20.0487Z" fill="#878277"/>
<path d="M23.0272 7.0686C17.2759 3.01862 9.44282 4.70042 5.75495 10.5616C4.77079 12.0098 4.16346 13.7168 3.83784 15.4237C3.79028 15.8154 3.7354 16.2574 3.67687 16.6527C3.66589 16.7641 3.47564 16.7641 3.47198 16.6455C3.06588 11.3198 6.63667 6.59425 11.7697 5.00229C15.5783 3.76968 19.9759 4.48481 23.1479 6.90689C23.2394 6.98954 23.1479 7.14048 23.0272 7.0686Z" fill="#878277"/>
<path d="M20.3821 10.5795C16.7783 8.03888 11.8026 9.17445 9.52699 12.8471C8.76234 13.9575 8.32697 15.262 8.11477 16.6455C8.10745 16.703 8.05623 16.7426 7.9977 16.7318C7.95013 16.7246 7.91721 16.6887 7.90989 16.6455C7.73428 15.2189 8.05623 13.6988 8.83186 12.4231C10.3502 9.87161 13.5368 8.48448 16.4893 8.8115C17.9564 8.96602 19.3577 9.53741 20.5028 10.4142C20.6016 10.4897 20.4882 10.6514 20.3821 10.576V10.5795Z" fill="#878277"/>
<path d="M17.7478 14.0761C15.4246 12.6387 13.2404 14.3528 12.5563 16.6455C12.5307 16.7426 12.377 16.7426 12.3514 16.6455C11.5977 13.6521 15.7832 12.0817 17.8686 13.9144C17.9673 13.9935 17.8503 14.1444 17.7478 14.0761Z" fill="#878277"/>
<path d="M31.42 25.2127L30.6517 20.6883C32.2652 23.5991 34.6762 25.1875 37.4019 25.1875C39.7324 25.1875 41.2397 23.9657 41.2397 22.0431C41.2397 20.4583 40.2336 19.2617 38.0641 18.4567L36.2384 17.7811C32.7188 16.4802 31.131 14.608 31.131 12.2182C31.131 9.38288 33.4872 7.51421 37.0579 7.51421C38.8836 7.51421 40.947 8.06044 42.4324 8.91931L42.9629 12.7932C41.6129 10.3747 39.1251 8.81509 36.5567 8.81509C34.5445 8.81509 33.3554 9.80333 33.3554 11.4672C33.3554 13.0016 34.3067 14.0653 36.8238 15.0033L38.6494 15.6789C42.1178 16.9546 43.5995 18.7226 43.5995 21.1627C43.5995 24.4113 41.0056 26.492 36.9299 26.492C35.0238 26.492 32.8798 25.9997 31.4237 25.2199L31.42 25.2127Z" fill="#878277"/>
<path d="M46.585 7.89873H57.8864V10.6802C56.9059 9.66678 55.029 9.12055 52.5119 9.12055H49.3874V14.0869C49.3874 15.3339 49.6801 15.5423 51.1326 15.5423C52.5851 15.5423 54.3083 15.3339 55.0766 15.0751V17.0768C54.6266 16.8971 52.6399 16.6887 51.107 16.6887H49.3874V22.3306C49.3874 24.4365 49.9948 25.0078 51.9265 25.0078C54.6522 25.0078 56.9022 23.8902 58.7827 21.7305L57.4583 26.0967H46.5813V7.89873H46.585Z" fill="#878277"/>
<path d="M61.567 7.89873H64.2671L73.5563 19.0245C74.3758 19.9876 74.588 20.1421 74.9319 20.1421C75.488 20.1421 75.6197 19.5168 75.3819 17.8027L74.0575 7.89873H76.838V26.6178L62.8365 10.4466L64.3439 26.0967H61.5634V7.89873H61.567Z" fill="#878277"/>
<path d="M80.7856 25.2127L80.0173 20.6883C81.6308 23.5991 84.0418 25.1875 86.7675 25.1875C89.098 25.1875 90.6053 23.9657 90.6053 22.0431C90.6053 20.4583 89.5992 19.2617 87.4297 18.4567L85.604 17.7811C82.0844 16.4802 80.4966 14.608 80.4966 12.2182C80.4966 9.38288 82.8527 7.51421 86.4235 7.51421C88.2492 7.51421 90.3126 8.06044 91.798 8.91931L92.3285 12.7932C90.9785 10.3747 88.4907 8.81509 85.9223 8.81509C83.9101 8.81509 82.721 9.80333 82.721 11.4672C82.721 13.0016 83.6723 14.0653 86.1894 15.0033L88.015 15.6789C91.4834 16.9546 92.9651 18.7226 92.9651 21.1627C92.9651 24.4113 90.3712 26.492 86.2955 26.492C84.3894 26.492 82.2454 25.9997 80.7893 25.2199L80.7856 25.2127Z" fill="#878277"/>
<path d="M95.9506 7.89873H107.252V10.6802C106.271 9.66678 104.395 9.12055 101.877 9.12055H98.7531V14.0869C98.7531 15.3339 99.0457 15.5423 100.498 15.5423C101.951 15.5423 103.674 15.3339 104.442 15.0751V17.0768C103.992 16.8971 102.006 16.6887 100.473 16.6887H98.7531V22.3306C98.7531 24.4365 99.3604 25.0078 101.292 25.0078C104.018 25.0078 106.268 23.8902 108.148 21.7305L106.824 26.0967H95.9469V7.89873H95.9506Z" fill="#878277"/>
<path d="M117.814 7.89873H122.79C128.585 7.89873 131.841 10.0046 131.841 13.3826C131.841 16.7605 128.849 18.5573 124.272 18.5573C123.134 18.5573 121.941 18.428 120.672 18.1656V26.0931H117.814V7.89873ZM128.746 13.4616C128.746 10.5508 126.654 9.12055 122.739 9.12055H120.675V15.3087C120.675 16.7641 121.762 17.3607 123.957 17.3607C127.29 17.3607 128.746 15.9843 128.746 13.4616Z" fill="#878277"/>
<path d="M134.146 16.9474C134.146 11.5678 138.303 7.51062 143.754 7.51062C149.205 7.51062 153.387 11.6433 153.387 17.0516C153.387 22.46 149.231 26.4884 143.779 26.4884C138.328 26.4884 134.146 22.3558 134.146 16.9474ZM150.16 17.5188C150.16 12.2434 147.621 8.73244 143.516 8.73244C139.784 8.73244 137.377 11.6433 137.377 16.4802C137.377 21.7556 139.916 25.2666 144.021 25.2666C147.753 25.2666 150.16 22.3558 150.16 17.5188Z" fill="#878277"/>
<path d="M156.749 7.89873H159.661V26.0967H156.749V7.89873Z" fill="#878277"/>
<path d="M163.898 7.89873H166.598L175.887 19.0245C176.707 19.9876 176.919 20.1421 177.263 20.1421C177.819 20.1421 177.951 19.5168 177.713 17.8027L176.389 7.89873H179.169V26.6178L165.168 10.4466L166.675 26.0967H163.894V7.89873H163.898Z" fill="#878277"/>
<path d="M188.832 9.12055H187.562C185.206 9.12055 183.3 9.97942 181.686 11.7475L182.744 7.89873H198.359V11.7475C197.484 10.1088 195.472 9.12055 192.958 9.12055H191.74V26.0967H188.828V9.12055H188.832Z" fill="#878277"/>
<path d="M158.176 6.57987C159.103 6.57987 159.855 5.84139 159.855 4.93041C159.855 4.01944 159.103 3.28095 158.176 3.28095C157.249 3.28095 156.497 4.01944 156.497 4.93041C156.497 5.84139 157.249 6.57987 158.176 6.57987Z" fill="#B8A9C9"/>
</svg>
